<svg xmlns="http://www.w3.org/2000/svg" viewBox="0 0 24 24"><rect width="19.5" height="12.5" x="2.25" y="4.25" fill="#5F5F5F" rx="2.5"/><rect width="1.9" height="1.75" x="4.5" y="6.75" fill="#FFF" rx=".35"/><rect width="1.9" height="1.75" x="7.1" y="6.75" fill="#FFF" rx=".35"/><rect width="1.9" height="1.75" x="9.7" y="6.75" fill="#FFF" rx=".35"/><rect width="1.9" height="1.75" x="12.3" y="6.75" fill="#FFF" rx=".35"/><rect width="1.9" height="1.75" x="14.9" y="6.75" fill="#FFF" rx=".35"/><rect width="1.9" height="1.75" x="17.5" y="6.75" fill="#FFF" rx=".35"/><rect width="2.4" height="1.75" x="4.5" y="9.5" fill="#FFF" rx=".35"/><rect width="2.4" height="1.75" x="7.6" y="9.5" fill="#FFF" rx=".35"/><rect width="2.4" height="1.75" x="10.7" y="9.5" fill="#FFF" rx=".35"/><rect width="2.4" height="1.75" x="13.8" y="9.5" fill="#FFF" rx=".35"/><rect width="2.4" height="1.75" x="16.9" y="9.5" fill="#FFF" rx=".35"/><rect width="10.9" height="1.9" x="4.5" y="12.25" fill="#FFF" rx=".4"/><rect width="3.3" height="1.9" x="16.1" y="12.25" fill="#FFF" rx=".4"/><circle cx="18.5" cy="18.5" r="4.5" fill="#C50F1F"/><path fill="none" stroke="#FFF" stroke-linecap="round" stroke-width="1.5" d="M16.35 18.5h4.3"/></svg>