<svg xmlns="http://www.w3.org/2000/svg" width="16" height="16" fill="none" viewBox="0 0 16 16"><rect width="9.365" height="9.365" x="3" y="3.551" fill="url(#paint0_linear_2155_27162)" rx=".72"/><rect width="13" height="9" x="1" y="2" fill="url(#paint1_linear_2155_27162)" rx=".722"/><circle cx="11.4" cy="9.4" r="4.4" fill="url(#paint2_radial_2155_27162)"/><path fill="#666" stroke="#666" stroke-width=".147" d="M13.8703 11.2497C13.964 11.3434 14.116 11.3434 14.2097 11.2497C14.3034 11.156 14.3034 11.004 14.2097 10.9103L12.4594 9.16L14.2097 7.40971C14.3034 7.31598 14.3034 7.16402 14.2097 7.07029C14.116 6.97657 13.964 6.97657 13.8703 7.07029L11.9503 8.9903C11.8566 9.08402 11.8566 9.23598 11.9503 9.32971L13.8703 11.2497ZM9.40971 8.0303C9.31598 7.93657 9.16402 7.93657 9.07029 8.0303C8.97657 8.12402 8.97657 8.27598 9.07029 8.36971L10.8206 10.12L9.07029 11.8703C8.97657 11.964 8.97657 12.116 9.07029 12.2097C9.16402 12.3034 9.31598 12.3034 9.40971 12.2097L11.3297 10.2897C11.4234 10.196 11.4234 10.044 11.3297 9.95031L9.40971 8.0303Z"/><defs><linearGradient id="paint0_linear_2155_27162" x1="3.223" x2="8.525" y1="3.551" y2="6.688" gradientUnits="userSpaceOnUse"><stop stop-color="#246FB0"/><stop offset="1" stop-color="#14518A"/></linearGradient><linearGradient id="paint1_linear_2155_27162" x1="1.155" x2="14.867" y1="1.667" y2="9.906" gradientUnits="userSpaceOnUse"><stop stop-color="#86D6F9"/><stop offset="1" stop-color="#1FA3E4"/></linearGradient><radialGradient id="paint2_radial_2155_27162" cx="0" cy="0" r="1" gradientTransform="translate(10.9111 6.22222) rotate(90) scale(7.57778)" gradientUnits="userSpaceOnUse"><stop stop-color="#E7ECF1"/><stop offset=".84" stop-color="#D2D4D6"/><stop offset="1" stop-color="#A9ABAC"/></radialGradient></defs></svg>